<?xml version="1.0" encoding="utf-8"?>
<!-- Generator: Adobe Illustrator 25.2.1, SVG Export Plug-In . SVG Version: 6.00 Build 0)  -->
<svg version="1.1" xmlns="http://www.w3.org/2000/svg" xmlns:xlink="http://www.w3.org/1999/xlink" x="0px" y="0px"
	 viewBox="0 0 39.6 43.2" style="enable-background:new 0 0 39.6 43.2;" xml:space="preserve">
<style type="text/css">
	.st0{display:none;}
	.st1{display:inline;fill:#666463;stroke:#000000;stroke-miterlimit:10;}
	.st2{fill:#FFFFFF;}
	.st3{fill:none;stroke:#E26E05;stroke-width:1.2092;stroke-miterlimit:10;}
	.st4{fill:none;stroke:#E26E05;stroke-width:1.3358;stroke-miterlimit:10;}
</style>
<g id="Layer_2" class="st0">
	<rect x="-0.7" y="-10.1" class="st1" width="67.1" height="65.2"/>
</g>
<g id="Layer_1">
	<polygon class="st2" points="14.2,21.7 14.2,9.5 22.6,15.6 31.1,21.7 22.6,27.8 14.2,33.9 	"/>
	<polygon class="st3" points="10.2,21.7 10.2,1.7 24.3,11.7 38.4,21.7 24.3,31.7 10.2,41.6 	"/>
</g>
<g id="Layer_3">
	<rect x="0.3" y="17.2" class="st2" width="15" height="9"/>
	<line class="st4" x1="24.3" y1="21.7" x2="0.3" y2="21.7"/>
	<g>
		<polygon class="st2" points="59.7,37.2 59.7,25 68.1,31.1 76.6,37.2 68.1,43.3 59.7,49.4 		"/>
		<polygon class="st3" points="55.7,37.2 55.7,17.2 69.8,27.2 83.9,37.2 69.8,47.2 55.7,57.1 		"/>
		<g>
			<rect x="45.8" y="32.8" class="st2" width="15" height="9"/>
			<line class="st4" x1="69.8" y1="37.3" x2="45.8" y2="37.3"/>
		</g>
	</g>
</g>
</svg>
